<?xml version="1.0" encoding="utf-8"?>
<!-- Generator: Adobe Illustrator 22.1.0, SVG Export Plug-In . SVG Version: 6.00 Build 0)  -->
<svg version="1.1" id="Layer_1" xmlns="http://www.w3.org/2000/svg" xmlns:xlink="http://www.w3.org/1999/xlink" x="0px" y="0px"
	 viewBox="0 0 69.5 71.5" style="enable-background:new 0 0 69.5 71.5;" xml:space="preserve">
<style type="text/css">
	.st0{fill:none;stroke:#000000;stroke-width:66.666;stroke-linecap:round;stroke-linejoin:round;stroke-miterlimit:10;}
	.st1{display:none;fill:#231F20;}
	.st2{fill:#231F20;}
</style>
<g>
	<path class="st0" d="M100.1,191.3"/>
</g>
<g>
	<g>
		<path class="st1" d="M-22.7-153.1c3.2,9.3,11.8,7.7,12.7,7.5c5.6-1.4,8.9-7.1,7.5-12.7L-26-250.2c-1.4-5.6-7.1-9-12.7-7.5
			l-91.9,23.5c-5.6,1.4-8.9,7.1-7.5,12.7c1.4,5.6,7.1,9,12.7,7.5l71.6-18.3l-91.3,134.8l-31.1-75.3c-1.2-4.3-10.5-10.6-17.9-2.3
			L-309.4-24c-3.5,4.6-2.6,11.1,2,14.6c1.9,1.4,9,4.6,14.6-2l104.2-136.8l31.6,76.5c5.9,10.8,16.3,5.6,18.3,1.9L-39-216.9
			L-22.7-153.1z"/>
		<path class="st2" d="M33.2,26.8c-4.8,0-9.9,1.4-9.9,4.1v13.3c0,2.6,5.1,4.1,9.9,4.1c4.9,0,9.9-1.4,9.9-4.1V30.9
			C43.1,28.2,38.1,26.8,33.2,26.8L33.2,26.8z M41.6,44.1c0,1.1-3.3,2.6-8.4,2.6c-5.1,0-8.4-1.6-8.4-2.6v-2.2
			c1.9,1.2,5.2,1.9,8.4,1.9c3.3,0,6.6-0.6,8.4-1.8V44.1z M41.6,39.7c0,1.1-3.3,2.6-8.4,2.6c-5.1,0-8.4-1.6-8.4-2.6v-2.2
			c1.9,1.2,5.2,1.9,8.4,1.9c3.3,0,6.6-0.6,8.4-1.8V39.7z M41.6,35.3c0,1.1-3.3,2.6-8.4,2.6c-5.1,0-8.4-1.6-8.4-2.6v-2.2
			c1.9,1.2,5.2,1.9,8.4,1.9c3.3,0,6.6-0.6,8.4-1.8V35.3z M33.2,33.5c-5.1,0-8.4-1.6-8.4-2.6s3.3-2.6,8.4-2.6s8.4,1.6,8.4,2.6
			C41.6,31.9,38.3,33.5,33.2,33.5z"/>
		<path class="st1" d="M62.1-73.7c-3.7-2.4-10.8-4.4-21.1-5.9v-13.7c4.2,1,6.7,2.9,7.7,5.6L65-88.9c-1.1-3.5-3.7-6.3-7.7-8.4
			c-4-2.1-9.5-3.4-16.3-3.8v-3.5h-9.3v3.5c-7.4,0.4-13.3,1.9-17.8,4.5s-6.7,5.8-6.7,9.7c0,3.8,2,7,5.9,9.7s10.1,4.6,18.5,5.9v14.7
			c-2.3-0.6-4.4-1.6-6.3-2.9c-1.9-1.4-3.2-3-3.9-4.8l-16.8,1c1.3,4.6,4.3,8.2,8.9,10.7s10.7,4,18.1,4.5v6.4h9.3v-6.6
			c8.4-0.7,14.9-2.4,19.6-5.3c4.7-2.9,7.1-6.5,7.1-10.7C67.7-68.2,65.8-71.3,62.1-73.7L62.1-73.7z M31.6-81.3
			c-2.8-0.7-4.9-1.5-6.3-2.6s-2.1-2.2-2.1-3.5c0-1.4,0.8-2.6,2.3-3.7c1.5-1.1,3.5-1.9,6.1-2.4V-81.3z M48.9-58.6
			c-2,1.3-4.6,2.1-7.9,2.4v-13.7c3.9,0.6,6.6,1.5,8.3,2.6c1.7,1.1,2.5,2.5,2.5,4C51.9-61.4,50.9-59.9,48.9-58.6z"/>
	</g>
</g>
</svg>
