<?xml version="1.0" encoding="utf-8"?>
<!-- Generator: Adobe Illustrator 22.1.0, SVG Export Plug-In . SVG Version: 6.00 Build 0)  -->
<svg version="1.1" id="Capa_1" xmlns="http://www.w3.org/2000/svg" xmlns:xlink="http://www.w3.org/1999/xlink" x="0px" y="0px"
	 viewBox="0 0 95.6 95.6" style="enable-background:new 0 0 95.6 95.6;" xml:space="preserve">
<g>
	<rect x="41.5" y="53.1" width="13" height="0.9"/>
	<rect x="41.5" y="55.9" width="4.9" height="0.9"/>
	<path d="M64.5,41.3H40.1c-1.3,0-2.3,1.1-2.3,2.4v15c0,1.3,1,2.4,2.3,2.4h24.4c1.3,0,2.3-1.1,2.3-2.4v-15
		C66.8,42.3,65.8,41.3,64.5,41.3z M40.1,42.2h24.4c0.8,0,1.4,0.6,1.4,1.4v1.5H38.7v-1.5C38.7,42.9,39.4,42.2,40.1,42.2z M65.9,46.1
		v3.2H38.7v-3.2L65.9,46.1L65.9,46.1z M64.5,60H40.1c-0.8,0-1.4-0.6-1.4-1.4v-8.4h27.2v8.4C65.9,59.4,65.3,60,64.5,60z"/>
</g>
</svg>
