<?xml version="1.0" encoding="utf-8"?>
<!-- Generator: Adobe Illustrator 22.1.0, SVG Export Plug-In . SVG Version: 6.00 Build 0)  -->
<svg version="1.1" id="Layer_1" xmlns="http://www.w3.org/2000/svg" xmlns:xlink="http://www.w3.org/1999/xlink" x="0px" y="0px"
	 viewBox="0 0 35.7 35.7" style="enable-background:new 0 0 35.7 35.7;" xml:space="preserve">
<style type="text/css">
	.st0{fill:none;stroke:#FFFFFF;stroke-width:0.5;stroke-miterlimit:10;}
</style>
<path class="st0" d="M32.3,20.7c0-1.4-1-2.5-2.2-2.8V13c0-0.6-0.4-1-1-1h-2.4V9.5c0-0.8-0.7-1.1-1.1-1.1H5.4c-1.1,0-2,0.9-2,2v17.5
	c0,1.1,0.9,2,2,2h23.7c0.6,0,1-0.4,1-1v-5.5C31.4,23.2,32.3,22,32.3,20.7z M5.4,8.8h20.3c0.1,0,0.7,0,0.7,0.6V12h-4.2H5.4
	c-0.9,0-1.6-0.7-1.6-1.6c0-0.1,0-0.2,0-0.3l0,0l0,0C4,9.4,4.6,8.8,5.4,8.8z M29.7,23.6V29c0,0.3-0.2,0.5-0.5,0.5H5.4
	c-0.9,0-1.6-0.7-1.6-1.6V11.7l0,0c0,0,0.1,0.1,0.1,0.1l0,0c0,0,0.1,0.1,0.1,0.1l0,0c0,0,0.1,0.1,0.1,0.1s0,0,0.1,0
	c0,0,0.1,0,0.1,0.1c0,0,0,0,0.1,0c0,0,0.1,0,0.1,0s0,0,0.1,0c0,0,0.1,0,0.1,0c0,0,0,0,0.1,0c0,0,0.1,0,0.1,0c0,0,0,0,0.1,0
	c0.1,0,0.1,0,0.2,0h16.7h0h7c0.3,0,0.5,0.2,0.5,0.5v4.8c-0.1,0-0.2,0-0.3,0h-3.5c-1.6,0-3,1.3-3,3c0,1.6,1.3,3,3,3h3.5
	C29.5,23.6,29.5,23.6,29.7,23.6z M29.8,23.1L29.8,23.1c-0.1,0-0.1,0-0.2,0s-0.1,0-0.2,0h-3.5c-1.4,0-2.5-1.1-2.5-2.5
	c0-1.4,1.1-2.5,2.5-2.5h3.5c0.1,0,0.1,0,0.2,0s0.1,0,0.2,0l0,0c1.1,0.2,2,1.2,2,2.4S31,22.9,29.8,23.1z M26.6,20.5
	c0,0,0.1,0.1,0.1,0.1c0,0,0,0.1-0.1,0.1c0,0-0.1,0.1-0.1,0.1s-0.1,0-0.1-0.1c0,0-0.1-0.1-0.1-0.1c0,0,0-0.1,0.1-0.1
	C26.3,20.4,26.5,20.4,26.6,20.5z"/>
</svg>
