<?xml version="1.0" encoding="UTF-8" ?>
<!DOCTYPE svg PUBLIC "-//W3C//DTD SVG 1.1//EN" "http://www.w3.org/Graphics/SVG/1.1/DTD/svg11.dtd">
<svg width="550pt" height="200pt" viewBox="0 0 550 200" version="1.1" xmlns="http://www.w3.org/2000/svg">
<g id="#818285ff">
<path fill="#818285" opacity="1.00" d=" M 119.78 50.09 C 124.78 50.15 129.79 50.17 134.80 50.06 C 134.84 77.98 134.82 105.91 134.80 133.83 C 120.19 133.71 105.57 133.86 90.95 133.76 C 82.70 133.53 75.40 126.27 75.17 118.01 C 75.11 108.66 75.10 99.31 75.17 89.96 C 75.43 81.71 82.73 74.50 90.96 74.25 C 100.57 74.16 110.18 74.23 119.79 74.23 C 119.76 66.18 119.77 58.13 119.78 50.09 M 90.15 94.98 C 90.15 101.01 90.15 107.04 90.15 113.07 C 89.88 115.84 92.17 118.68 95.01 118.72 C 103.26 118.80 111.52 118.67 119.77 118.78 C 119.77 108.93 119.77 99.07 119.77 89.22 C 111.53 89.34 103.29 89.18 95.05 89.29 C 92.20 89.34 89.88 92.18 90.15 94.98 Z" />
<path fill="#818285" opacity="1.00" d=" M 143.82 50.09 C 148.82 50.14 153.83 50.18 158.84 50.06 C 158.90 55.09 158.86 60.12 158.87 65.16 C 153.85 65.13 148.84 65.14 143.82 65.15 C 143.81 60.13 143.82 55.11 143.82 50.09 Z" />
<path fill="#818285" opacity="1.00" d=" M 236.73 50.05 C 241.74 50.18 246.75 50.17 251.76 50.05 C 251.85 55.08 251.79 60.12 251.80 65.16 C 246.78 65.14 241.75 65.14 236.72 65.16 C 236.72 60.12 236.71 55.09 236.73 50.05 Z" />
<path fill="#818285" opacity="1.00" d=" M 143.81 74.20 C 148.82 74.21 153.83 74.25 158.84 74.16 C 158.89 94.05 158.89 113.95 158.84 133.84 C 153.83 133.75 148.82 133.79 143.81 133.80 C 143.82 113.93 143.82 94.07 143.81 74.20 Z" />
<path fill="#818285" opacity="1.00" d=" M 168.05 89.92 C 168.33 81.66 175.66 74.42 183.93 74.25 C 198.51 74.12 213.09 74.31 227.67 74.16 C 227.71 96.46 227.66 118.76 227.70 141.07 C 228.11 149.64 220.64 157.90 211.98 157.92 C 205.99 157.97 200.01 157.83 194.03 157.99 C 189.90 152.93 185.66 147.95 181.58 142.86 C 189.71 143.44 197.87 142.97 206.01 143.16 C 207.94 143.32 210.02 142.83 211.31 141.29 C 213.34 139.29 212.56 136.26 212.62 133.73 C 203.06 133.83 193.49 133.80 183.93 133.76 C 175.26 133.63 167.84 125.72 167.97 117.10 C 167.93 108.04 167.79 98.97 168.05 89.92 M 183.02 94.88 C 183.16 101.25 182.90 107.63 183.12 113.99 C 183.16 116.55 185.44 118.77 188.00 118.72 C 196.22 118.80 204.45 118.67 212.67 118.78 C 212.65 108.92 212.68 99.06 212.66 89.20 C 204.45 89.35 196.24 89.19 188.03 89.28 C 185.10 89.25 182.81 92.03 183.02 94.88 Z" />
<path fill="#818285" opacity="1.00" d=" M 236.73 74.16 C 241.74 74.24 246.75 74.25 251.77 74.15 C 251.83 94.05 251.83 113.95 251.77 133.85 C 246.75 133.75 241.74 133.76 236.73 133.84 C 236.72 113.95 236.72 94.05 236.73 74.16 Z" />
</g>
<g id="#ef3f3eff">
<path fill="#ef3f3e" opacity="1.00" d=" M 260.83 50.11 C 265.84 50.13 270.85 50.17 275.86 50.07 C 275.87 68.01 275.90 85.96 275.84 103.90 C 284.31 94.09 292.21 83.80 300.79 74.09 C 307.21 74.31 313.64 74.26 320.06 74.09 C 311.87 84.12 303.67 94.15 295.27 104.01 C 303.66 113.86 311.85 123.89 320.05 133.91 C 313.62 133.74 307.18 133.69 300.76 133.90 C 292.20 124.20 284.29 113.92 275.84 104.12 C 275.90 114.02 275.87 123.92 275.87 133.82 C 270.86 133.77 265.85 133.78 260.84 133.80 C 260.83 105.90 260.84 78.01 260.83 50.11 Z" />
<path fill="#ef3f3e" opacity="1.00" d=" M 391.22 50.06 C 396.23 50.16 401.24 50.17 406.25 50.06 C 406.26 77.98 406.26 105.91 406.25 133.83 C 401.24 133.76 396.24 133.75 391.23 133.85 C 391.16 105.92 391.18 77.99 391.22 50.06 Z" />
<path fill="#ef3f3e" opacity="1.00" d=" M 322.44 90.12 C 322.76 81.63 330.37 74.13 338.92 74.23 C 353.37 74.16 367.81 74.28 382.26 74.17 C 382.26 94.06 382.26 113.94 382.26 133.83 C 367.49 133.70 352.72 133.88 337.96 133.74 C 329.46 133.37 322.32 125.51 322.41 117.08 C 322.42 108.09 322.35 99.11 322.44 90.12 M 337.44 94.95 C 337.42 100.98 337.42 107.00 337.44 113.02 C 337.17 116.06 339.88 119.04 342.98 118.75 C 351.06 118.76 359.14 118.70 367.22 118.77 C 367.27 108.97 367.09 99.16 367.32 89.37 C 359.21 89.13 351.09 89.32 342.98 89.26 C 339.89 89.00 337.20 91.93 337.44 94.95 Z" />
<path fill="#ef3f3e" opacity="1.00" d=" M 415.36 89.97 C 415.63 81.44 423.44 74.04 431.98 74.22 C 446.29 74.18 460.60 74.26 474.91 74.18 C 474.93 94.06 474.93 113.94 474.91 133.82 C 460.59 133.74 446.27 133.81 431.95 133.79 C 423.40 133.98 415.59 126.52 415.35 117.98 C 415.26 108.65 415.24 99.30 415.36 89.97 M 430.35 94.95 C 430.36 101.26 430.26 107.58 430.40 113.89 C 430.45 116.70 433.23 119.07 436.02 118.75 C 443.97 118.76 451.93 118.69 459.89 118.79 C 459.98 108.93 459.91 99.07 459.89 89.21 C 451.92 89.32 443.95 89.23 435.98 89.26 C 432.86 88.94 430.05 91.86 430.35 94.95 Z" />
</g>
</svg>
