<svg width="287" height="230" viewBox="0 0 287 230" fill="none" xmlns="http://www.w3.org/2000/svg">
<g clip-path="url(#clip0_1837_1331)">
<path d="M3.14004 206.88H8.07004C8.59004 206.88 8.94004 206.65 9.00004 206.07L10.39 196.38H12.89L17.47 206.24C17.64 206.65 17.99 206.88 18.46 206.88H23.92C24.56 206.88 24.85 206.47 24.56 205.84L19.92 195.98C25.55 194.53 27.99 189.65 27.99 185.65C27.99 179.79 23.41 176.71 18.01 176.71H1.98004C1.46004 176.71 1.11004 176.94 1.05004 177.52L0.350038 182.34C0.290038 182.98 0.580038 183.27 1.16004 183.27H5.64004L2.33004 205.96C2.27004 206.54 2.56004 206.89 3.14004 206.89V206.88ZM16.31 189.82H11.32L12.25 183.26H17.99C19.67 183.26 21.41 183.61 21.41 185.64C21.41 188.77 19.2 189.82 16.3 189.82H16.31ZM38.3 181.81C40.22 181.81 41.72 180.3 41.72 178.39C41.72 176.48 40.21 174.97 38.3 174.97C36.39 174.97 34.88 176.54 34.88 178.39C34.88 180.24 36.45 181.81 38.3 181.81ZM31.8 206.88H36.67C37.19 206.88 37.54 206.65 37.6 206.07L40.68 184.6C40.74 184.02 40.45 183.67 39.87 183.67H35C34.48 183.67 34.13 183.9 34.07 184.48L30.99 205.95C30.93 206.53 31.22 206.88 31.8 206.88ZM54.2 207C56.41 207 58.32 206.3 59.89 205.09L59.77 205.96C59.71 206.48 60 206.89 60.58 206.89H65.45C65.97 206.89 66.32 206.66 66.38 206.08L69.51 184.61C69.57 184.03 69.28 183.68 68.7 183.68H60.23C52.34 183.68 44.62 188.03 44.62 196.62C44.62 202.31 48.28 207.01 54.19 207.01L54.2 207ZM54.55 200.44C52.29 200.44 51.18 198.64 51.18 196.61C51.18 191.85 56.17 190.23 60.23 190.23H62.03L61.28 195.57C60.76 198.99 57.62 200.44 54.55 200.44ZM81.42 206.07L82.12 201.31C82.18 200.79 81.89 200.5 81.37 200.32C79.75 199.97 79.11 198.46 79.11 196.84C79.11 196.55 79.11 196.26 79.17 195.97L81.84 177.63C81.9 177.05 81.61 176.7 81.03 176.7H76.16C75.64 176.7 75.29 176.93 75.23 177.51L72.68 195.03C72.62 195.61 72.56 196.19 72.56 196.77C72.56 201.7 75.46 206 80.45 206.81C81.03 206.93 81.38 206.58 81.44 206.06L81.42 206.07Z" fill="#2563EB"/>
<path d="M98.9201 206.88H103.85C104.37 206.88 104.72 206.65 104.78 206.07L105.65 199.74H111.63C118.3 199.74 123.58 193.41 123.58 186.97C123.58 181.23 119.63 176.7 113.77 176.7H97.7501C97.2301 176.7 96.8801 176.93 96.8201 177.51L96.1201 182.33C96.0601 182.97 96.3501 183.26 96.9301 183.26H101.4L98.0901 205.95C98.0301 206.53 98.3201 206.88 98.9001 206.88H98.9201ZM111.63 193.18H106.64L108.03 183.26H113.77C115.98 183.26 116.96 184.83 116.96 186.97C116.96 189.81 114.7 193.18 111.62 193.18H111.63ZM136.06 206.99C138.27 206.99 140.18 206.29 141.75 205.08L141.63 205.95C141.57 206.47 141.86 206.88 142.44 206.88H147.31C147.83 206.88 148.18 206.65 148.24 206.07L151.37 184.6C151.43 184.02 151.14 183.67 150.56 183.67H142.09C134.2 183.67 126.48 188.02 126.48 196.61C126.48 202.3 130.14 207 136.05 207L136.06 206.99ZM136.41 200.43C134.15 200.43 133.04 198.63 133.04 196.6C133.04 191.84 138.03 190.22 142.09 190.22H143.89L143.14 195.56C142.62 198.98 139.48 200.43 136.41 200.43ZM155.27 215.52C162.64 215 169.37 208.03 172.5 201.94L181.15 184.71C181.44 184.07 181.15 183.67 180.51 183.67H175.06C174.6 183.67 174.31 183.9 174.07 184.31L167.57 197.13L164.26 184.42C164.14 183.96 163.85 183.67 163.33 183.67H158.22C157.64 183.67 157.29 184.02 157.47 184.66L162.63 204.45C160.42 206.71 157.76 208.63 155.2 208.98C154.68 209.04 154.39 209.33 154.39 209.85V214.72C154.39 215.24 154.68 215.59 155.26 215.53L155.27 215.52ZM185.5 206.87H190.43C190.95 206.87 191.3 206.64 191.36 206.06L193.22 193.06C194.79 191.61 196.35 190.74 197.69 190.51C197.98 190.45 198.27 190.45 198.5 190.45C200.3 190.45 200.82 191.84 200.82 193.53C200.82 193.94 200.82 194.28 200.76 194.69L199.14 205.95C199.08 206.53 199.37 206.88 199.95 206.88H204.82C205.34 206.88 205.69 206.65 205.75 206.07L207.26 195.62C207.38 194.87 207.38 194.11 207.38 193.36C209.06 191.68 210.75 190.81 212.14 190.52C212.43 190.46 212.72 190.46 212.95 190.46C214.69 190.46 215.33 191.79 215.33 193.48C215.33 193.89 215.27 194.29 215.21 194.7L213.59 205.96C213.53 206.54 213.82 206.89 214.4 206.89H219.27C219.79 206.89 220.14 206.66 220.2 206.08L221.71 195.63C221.83 194.99 221.83 194.35 221.83 193.71C221.83 188.26 218.46 183.79 213.01 183.79C212.31 183.79 211.62 183.85 210.86 184.02C209 184.43 207.03 185.3 205.06 186.75C203.55 184.95 201.35 183.79 198.56 183.79C197.92 183.79 197.17 183.85 196.41 184.02C195.77 184.19 195.08 184.37 194.44 184.6L194.5 184.14C194.56 183.85 194.21 183.68 193.63 183.68H188.76C188.24 183.68 187.89 183.91 187.83 184.49L184.7 205.96C184.64 206.54 184.93 206.89 185.51 206.89L185.5 206.87ZM239.23 206.87L239.93 202.05C239.99 201.41 239.7 201.12 239.12 201.12C236.28 201.06 234.36 200.66 233.14 200.08C233.72 200.14 234.36 200.2 235 200.2C240.63 200.2 246.95 197.59 246.95 191.21C246.95 185.93 242.54 183.03 237.67 183.03C230.47 183.03 224.73 189.01 224.73 196.14C224.73 199.56 225.54 202.47 228.21 204.67C230.36 206.35 233.49 207.46 238.25 207.69C238.83 207.69 239.18 207.46 239.24 206.88L239.23 206.87ZM232.67 195.32C232.26 195.32 231.92 195.26 231.68 195.2C231.68 192.24 234.64 189.57 237.66 189.57C238.76 189.57 240.33 190.09 240.33 191.48C240.33 194.03 235.17 195.31 232.67 195.31V195.32ZM249.03 206.87H253.96C254.48 206.87 254.83 206.64 254.89 206.06L256.75 193.06C258.32 191.61 259.88 190.74 261.22 190.51C261.51 190.45 261.8 190.45 262.03 190.45C263.83 190.45 264.35 191.84 264.35 193.53C264.35 193.94 264.35 194.28 264.29 194.69L262.67 205.95C262.61 206.53 262.9 206.88 263.48 206.88H268.35C268.87 206.88 269.22 206.65 269.28 206.07L270.79 195.62C270.91 194.98 270.91 194.34 270.91 193.7C270.91 188.25 267.54 183.78 262.09 183.78C261.39 183.78 260.7 183.84 259.94 184.01C259.3 184.18 258.61 184.36 257.97 184.59L258.03 184.13C258.09 183.84 257.74 183.67 257.16 183.67H252.29C251.77 183.67 251.42 183.9 251.36 184.48L248.23 205.95C248.17 206.53 248.46 206.88 249.04 206.88L249.03 206.87ZM284.14 206.06L284.84 201.24C284.9 200.6 284.61 200.31 283.97 200.31C281.47 200.25 280.37 199.79 280.37 197.58C280.37 197.12 280.37 196.59 280.49 195.96L281.36 190.04H284.84C285.36 190.04 285.71 189.81 285.77 189.23L286.41 184.59C286.47 183.95 286.18 183.66 285.6 183.66H282.23L283.16 177.62C283.22 177.04 282.93 176.69 282.35 176.69H277.42C276.9 176.69 276.55 176.92 276.49 177.5L273.99 195.02C273.87 195.89 273.82 196.76 273.82 197.57C273.82 203.32 277.19 206.39 283.16 206.8C283.74 206.86 284.09 206.63 284.15 206.05L284.14 206.06Z" fill="#2563EB"/>
<path d="M82.13 111.4C84.55 111.4 86.5 113.36 86.5 115.77C86.5 118.18 84.54 120.14 82.13 120.14H66.62C64.21 120.14 62.25 118.18 62.25 115.77C62.25 113.36 64.21 111.4 66.62 111.4H82.13Z" fill="#2563EB"/>
<path d="M53.1101 111.4C55.5301 111.4 57.4801 113.36 57.4801 115.77C57.4801 118.18 55.5201 120.14 53.1101 120.14H49.9301C47.5101 120.14 45.5601 118.18 45.5601 115.77C45.5601 113.36 47.5201 111.4 49.9301 111.4H53.1101Z" fill="#2563EB"/>
<path d="M67.52 94.7C69.94 94.7 71.89 96.66 71.89 99.07C71.89 101.48 69.93 103.44 67.52 103.44H64.34C61.93 103.44 59.97 101.48 59.97 99.07C59.97 96.66 61.93 94.7 64.34 94.7H67.52Z" fill="#2563EB"/>
<path fill-rule="evenodd" clip-rule="evenodd" d="M107.62 136.85H45.5599C43.1499 136.85 41.1799 134.89 41.1799 132.48C41.1799 130.07 43.1399 128.11 45.5599 128.11H120.6C125.76 128.11 126.5 120.16 120.6 120.16H96.4699C89.9599 120.16 90.5399 111.41 96.4499 111.41H113.65C115.85 111.41 117.63 109.63 117.63 107.43C117.63 105.23 115.85 103.45 113.65 103.45C103.01 103.37 92.5699 103.45 82.1399 103.45C79.7299 103.45 77.7699 101.49 77.7699 99.0799C77.7699 96.6699 79.7299 94.7099 82.1399 94.7099H142.17C144.59 94.7099 146.54 93.1499 146.54 90.7299C146.54 88.3099 144.58 86.3499 142.17 86.3499H65.0199C62.8399 86.3499 61.0599 84.6599 61.0599 82.5699C61.0599 80.4799 62.8299 78.7899 65.0199 78.7899H128.65C131.06 78.7899 133.02 76.8299 133.02 74.4199C133.02 72.0099 131.06 70.0499 128.65 70.0499H75.7699C73.3499 70.0499 71.3999 68.1799 71.3999 65.8799C71.3999 63.5799 73.3599 61.6999 75.7699 61.6999H82.2099C119.18 61.6999 156.21 61.7599 193.24 61.7599C189.26 87.9099 177.68 117.66 161.47 136.84H113.27C119.94 155.45 131.1 159 142.72 154.59C181.02 140.06 206.58 62.0399 197.36 25.8599C189.66 -4.34011 159.65 7.15989 146.06 25.5199H139.27C139.67 24.9699 139.87 24.7199 140.08 24.4699C169.06 -10.8501 197.31 -5.76011 205.46 25.7299C208.1 35.9499 208.06 48.4999 205.99 61.7999V61.7599C221.35 61.7599 236.71 61.7399 252.05 61.6999L251.98 62.4299L245.11 122.88C244.24 130.56 237.24 136.84 229.57 136.84H175.31C170.71 143.02 165.84 148.26 160.87 152.18C140.73 168.06 115.73 169.8 107.6 136.84L107.62 136.85ZM61.1399 61.7099C63.5499 61.7099 65.5099 63.5799 65.5099 65.8899C65.5099 68.1999 63.5499 70.0599 61.1399 70.0599H54.6999C52.2799 70.0599 50.3299 68.1899 50.3299 65.8899C50.3299 63.5899 52.2899 61.7099 54.6999 61.7099H61.1399ZM211.67 102.66H231.35L229.04 123.73H209.36L211.67 102.66Z" fill="#2563EB"/>
<path fill-rule="evenodd" clip-rule="evenodd" d="M242.23 25.53C249.91 25.53 255.47 31.81 254.6 39.49L253.29 50.98H207.23C207.88 41.75 207.37 33.13 205.46 25.74L205.4 25.53H242.21H242.23ZM194.46 50.98H74.58C72.16 50.98 70.21 49.02 70.21 46.61C70.21 44.2 72.17 42.24 74.58 42.24H106.04C108.24 42.24 110.02 40.46 110.02 38.27C110.02 36.08 108.39 34.45 106.32 34.3H106.04H97.73C95.31 34.3 93.35 32.34 93.35 29.93C93.35 27.52 95.31 25.55 97.73 25.55H192.77C192.8 25.67 192.83 25.78 192.86 25.89C194.66 32.93 195.13 41.56 194.45 50.99L194.46 50.98Z" fill="#2563EB"/>
<path d="M1.19 227.51C0.53 227.51 0 226.97 0 226.31C0 225.65 0.53 225.11 1.19 225.11H122.6C123.26 225.11 123.79 225.65 123.79 226.31C123.79 226.97 123.26 227.51 122.6 227.51H1.19ZM156.18 227.51C155.52 227.51 154.99 226.97 154.99 226.31C154.99 225.65 155.52 225.11 156.18 225.11H276.16C276.82 225.11 277.35 225.65 277.35 226.31C277.35 226.97 276.82 227.51 276.16 227.51H156.18Z" fill="#2563EB"/>
<path fill-rule="evenodd" clip-rule="evenodd" d="M131.08 228.78L137.92 221.94C139.83 220.03 139.22 220.03 141.13 221.94L147.99 228.8C149.43 230.24 149.17 229.88 147.14 229.88H131.7C129.75 229.88 129.7 230.16 131.08 228.78Z" fill="#2563EB"/>
</g>
<defs>
<clipPath id="clip0_1837_1331">
<rect width="286.42" height="229.92" fill="white"/>
</clipPath>
</defs>
</svg>
